<svg version="1.1" xmlns="http://www.w3.org/2000/svg" xmlns:xlink="http://www.w3.org/1999/xlink" x="0px" y="0px"
	 viewBox="0 0 66.1 66.1" style="enable-background:new 0 0 66.1 66.1;" xml:space="preserve">
<style type="text/css">
	.st0{fill:#2d3142;}
	.st1{fill-rule:evenodd;clip-rule:evenodd;fill:#FFFFFF;}
</style>
<g id="XMLID_1074_">
	<g>
		<g id="XMLID_66_">
			<circle class="st0" cx="33.1" cy="33.1" r="31.1"/>
		</g>
		<g id="XMLID_57_">
			<path id="XMLID_58_" class="st1" d="M46.8,22.7l-11.6-6.7c-1.2-0.7-3-0.7-4.2,0l-11.6,6.7c-1.2,0.7-2.1,2.3-2.1,3.6v13.4
				c0,1.3,0.9,3,2.1,3.6l1.2,0.7c-0.1-1.3-0.1-2.9-0.1-5.2c0-0.3,0-0.5,0-0.9c0,0,0,0,0,0v-0.6c0-0.3,0-0.5,0-0.8v-8.4
				c0-0.5,0.1-1,0.3-1.5l0.1,0.1c0,0,0,0,0,0l0,0l2.8,1.6c-0.1,0.3-0.2,0.7-0.2,1v3.7v3.7v1.6v1v0.9v1.9v3.6l7.5,4.3
				c1.2,0.7,3,0.7,4.2,0l11.6-6.7c1.2-0.7,2.1-2.3,2.1-3.6V26.4C48.9,25.1,47.9,23.4,46.8,22.7z M24.3,27.4l-2.9-1.7
				c0.3-0.4,0.7-0.8,1.1-1.1l8.5-4.9c1.1-0.7,3-0.7,4.1,0l8.5,4.9c0.4,0.2,0.8,0.6,1.1,1.1l-2.9,1.7c-0.2-0.3-0.5-0.5-0.8-0.7
				L34.7,23c-0.9-0.5-2.3-0.5-3.2,0l-6.4,3.7C24.8,26.8,24.5,27.1,24.3,27.4z M32.5,46.9c-0.5-0.1-1.1-0.2-1.5-0.5L26.6,44v-3.5
				l4.8,2.8c0.3,0.2,0.6,0.3,1,0.3V46.9z M32.8,40.1c-0.7-0.1-1.5-0.6-2.9-1.4c-3.3-1.9-3.2-1.7-3.2-5.6c0-1.7,0-2.6,0.2-3.2
				l5.9,3.4V40.1z M32.8,32.5l-5.6-3.2c0.4-0.5,1.2-1,2.7-1.8c3.3-1.9,3.1-1.9,6.4,0c1.4,0.8,2.2,1.3,2.7,1.8l-5.9,3.4L32.8,32.5z
				 M33.4,33.6v-0.4l5.9-3.4c0.3,0.6,0.2,1.6,0.2,3.2c0,3.9,0.1,3.6-3.2,5.6c-1.4,0.8-2.2,1.3-2.9,1.4V33.6z M45.7,38
				c0,1.3-0.9,2.9-2.1,3.6l-8.5,4.9c-0.4,0.2-0.9,0.4-1.5,0.5v-3.4c0.4-0.1,0.7-0.2,1-0.3l6.4-3.7c0.9-0.5,1.6-1.7,1.6-2.8v-7.4
				c0-0.3-0.1-0.7-0.2-1l2.9-1.7c0.2,0.5,0.3,1,0.3,1.5V38z"/>
		</g>
	</g>
</g>
</svg>
