<?xml version="1.0" encoding="utf-8"?>
<!-- Generator: Adobe Illustrator 19.2.0, SVG Export Plug-In . SVG Version: 6.00 Build 0)  -->
<svg version="1.1" id="Layer_1" xmlns="http://www.w3.org/2000/svg" xmlns:xlink="http://www.w3.org/1999/xlink" x="0px" y="0px"
	 viewBox="0 0 32.6 203.6" style="enable-background:new 0 0 32.6 203.6;" xml:space="preserve">
<style type="text/css">
	.st0{fill:#2d3142;}
</style>
<g>
	<path class="st0" d="M16.5,198.3h7.7v5.3H2.3V195c0-2.6,0.6-4.6,1.9-5.9c1.3-1.4,3-2,5.2-2c1.4,0,2.6,0.3,3.6,0.9
		c1.1,0.6,1.9,1.5,2.5,2.7c0.6,1.2,0.9,2.7,0.9,4.4v3.2H16.5z M9.4,192.4c-1.9,0-2.9,1.1-2.9,3.2v2.7h5.7v-2.7
		C12.3,193.5,11.3,192.4,9.4,192.4z"/>
	<path class="st0" d="M16.5,169.8v12c1.3-0.1,2.2-0.4,2.8-1c0.6-0.6,0.9-1.4,0.9-2.3c0-0.8-0.2-1.4-0.6-1.9s-0.9-0.9-1.5-1V170
		c1.2,0.2,2.3,0.7,3.3,1.5c1,0.8,1.7,1.7,2.3,2.9c0.5,1.2,0.8,2.5,0.8,3.9c0,1.7-0.4,3.2-1.1,4.5c-0.7,1.3-1.7,2.3-3.1,3.1
		c-1.3,0.7-2.9,1.1-4.7,1.1c-1.8,0-3.4-0.4-4.7-1.1s-2.4-1.8-3.1-3.1s-1.1-2.8-1.1-4.5s0.4-3.2,1.1-4.5s1.7-2.3,3-3s2.7-1.1,4.4-1.1
		C15.5,169.6,16,169.6,16.5,169.8z M11.7,175.9c-0.6,0.6-0.9,1.4-0.9,2.3c0,1,0.3,1.8,0.9,2.4c0.6,0.6,1.4,1,2.5,1.1V175
		C13.1,174.9,12.3,175.2,11.7,175.9z"/>
	<path class="st0" d="M7.6,160.5c-0.6-1-0.9-2.2-0.9-3.4h5.7v1.5c0,1.4,0.3,2.5,0.9,3.3c0.6,0.8,1.6,1.2,3,1.2h7.9v5.3H6.9v-5.3h3.2
		C9.1,162.4,8.3,161.6,7.6,160.5z"/>
	<path class="st0" d="M4.5,148c0,0.9,0.2,1.5,0.6,1.9c0.4,0.4,1,0.6,1.8,0.6v-3.1h4.5v3.1l12.8,0v5.3H11.4v2.1H6.9v-2.1H6.7
		c-2.1,0-3.8-0.6-5-1.9s-1.7-3-1.7-5.4c0-0.5,0-0.9,0-1.1h4.5V148z"/>
	<path class="st0" d="M16.5,130.4v12c1.3-0.1,2.2-0.4,2.8-1c0.6-0.6,0.9-1.4,0.9-2.3c0-0.8-0.2-1.4-0.6-1.9s-0.9-0.9-1.5-1v-5.6
		c1.2,0.2,2.3,0.7,3.3,1.5s1.7,1.7,2.3,2.9c0.5,1.2,0.8,2.5,0.8,3.9c0,1.7-0.4,3.2-1.1,4.5s-1.7,2.3-3.1,3.1
		c-1.3,0.7-2.9,1.1-4.7,1.1s-3.4-0.4-4.7-1.1s-2.4-1.8-3.1-3.1s-1.1-2.8-1.1-4.5s0.4-3.2,1.1-4.5s1.7-2.3,3-3s2.7-1.1,4.4-1.1
		C15.5,130.2,16,130.3,16.5,130.4z M11.7,136.5c-0.6,0.6-0.9,1.4-0.9,2.3c0,1,0.3,1.8,0.9,2.4c0.6,0.6,1.4,1,2.5,1.1v-6.7
		C13.1,135.6,12.3,135.9,11.7,136.5z"/>
	<path class="st0" d="M8.5,115.6c1.2-1.5,2.9-2.5,5.1-2.8v5.6c-0.7,0.2-1.3,0.5-1.7,1s-0.6,1.2-0.6,1.9c0,0.9,0.4,1.7,1.1,2.3
		c0.7,0.6,1.8,0.9,3.2,0.9s2.5-0.3,3.2-0.9s1.1-1.4,1.1-2.3c0-0.8-0.2-1.4-0.6-1.9s-1-0.9-1.7-1v-5.6c2.1,0.4,3.8,1.3,5.1,2.8
		c1.2,1.5,1.8,3.4,1.8,5.6c0,1.7-0.4,3.2-1.1,4.5s-1.7,2.3-3.1,3.1c-1.3,0.7-2.9,1.1-4.7,1.1c-1.8,0-3.4-0.4-4.7-1.1
		s-2.4-1.8-3.1-3.1c-0.7-1.3-1.1-2.8-1.1-4.5C6.7,119,7.3,117.1,8.5,115.6z"/>
	<path class="st0" d="M19.6,101.8h4.5v2.4c0,2-0.5,3.6-1.5,4.7s-2.7,1.7-5,1.7h-6.3v2.3H6.9v-2.3H2.7v-5.3h4.2v-3.5h4.5v3.5h6.4
		c0.7,0,1.2-0.1,1.4-0.4c0.3-0.3,0.4-0.7,0.4-1.4C19.6,103.5,19.6,101.8,19.6,101.8z"/>
	<path class="st0" d="M16.5,84.1v12c1.3-0.1,2.2-0.4,2.8-1c0.6-0.6,0.9-1.4,0.9-2.3c0-0.8-0.2-1.4-0.6-1.9s-0.9-0.9-1.5-1v-5.6
		c1.2,0.2,2.3,0.7,3.3,1.5s1.7,1.7,2.3,2.9c0.5,1.2,0.8,2.5,0.8,3.9c0,1.7-0.4,3.2-1.1,4.5s-1.7,2.3-3.1,3.1
		c-1.3,0.7-2.9,1.1-4.7,1.1s-3.4-0.4-4.7-1.1s-2.4-1.8-3.1-3.1c-0.7-1.3-1.1-2.8-1.1-4.5s0.4-3.2,1.1-4.5s1.7-2.3,3-3
		s2.7-1.1,4.4-1.1C15.5,84,16,84,16.5,84.1z M11.7,90.3c-0.6,0.6-0.9,1.4-0.9,2.3c0,1,0.3,1.8,0.9,2.4c0.6,0.6,1.4,1,2.5,1.1v-6.7
		C13.1,89.3,12.3,89.6,11.7,90.3z"/>
	<path class="st0" d="M7.6,72.8c0.6-0.9,1.4-1.6,2.4-2.1H1.3v-5.3h22.9v5.3H21c1,0.4,1.8,1.1,2.4,2.1c0.6,0.9,0.9,2.1,0.9,3.4
		c0,1.4-0.4,2.7-1.1,3.8c-0.7,1.1-1.7,2-3.1,2.7c-1.3,0.6-2.9,1-4.7,1s-3.4-0.3-4.7-1S8.3,81.2,7.6,80c-0.7-1.1-1.1-2.4-1.1-3.8
		C6.7,74.9,7,73.8,7.6,72.8z M12.4,77.3c0.7,0.7,1.8,1,3.1,1s2.4-0.3,3.1-1s1.1-1.6,1.1-2.7c0-1.1-0.4-2-1.1-2.7
		c-0.8-0.7-1.8-1.1-3.1-1.1s-2.3,0.4-3.1,1.1c-0.8,0.7-1.1,1.6-1.1,2.7C11.3,75.7,11.7,76.6,12.4,77.3z"/>
	<path class="st0" d="M20.2,45.2v8.2l4,1.4v5.6l-21.7-8v-6.1l21.7-8v5.6L20.2,45.2z M16.2,46.5l-8,2.7l8,2.8V46.5z"/>
	<path class="st0" d="M7.8,23.1c0.7-1.1,1.7-2,3.1-2.7c1.3-0.6,2.9-1,4.7-1s3.4,0.3,4.7,1s2.4,1.5,3.1,2.7c0.7,1.1,1.1,2.4,1.1,3.8
		c0,1.3-0.3,2.5-0.9,3.4s-1.4,1.6-2.4,2.1h11.4v5.3H6.9v-5.3H10c-1-0.4-1.8-1.1-2.4-2.1c-0.6-0.9-0.9-2.1-0.9-3.4
		C6.7,25.5,7,24.2,7.8,23.1z M12.5,31.3c0.8,0.7,1.8,1.1,3.1,1.1s2.3-0.4,3.1-1.1c0.8-0.7,1.1-1.6,1.1-2.7c0-1.1-0.4-2-1.1-2.7
		s-1.8-1-3.1-1s-2.4,0.3-3.1,1c-0.7,0.7-1.1,1.6-1.1,2.7C11.3,29.7,11.7,30.6,12.5,31.3z"/>
	<path class="st0" d="M7.8,3.7c0.7-1.1,1.7-2,3.1-2.7c1.3-0.6,2.9-1,4.7-1c1.8,0,3.4,0.3,4.7,1c1.3,0.6,2.4,1.5,3.1,2.7
		c0.7,1.1,1.1,2.4,1.1,3.8c0,1.3-0.3,2.5-0.9,3.4s-1.4,1.6-2.4,2.1h11.4v5.3H6.9V13H10c-1-0.4-1.8-1.1-2.4-2.1C7,10,6.7,8.8,6.7,7.5
		C6.7,6,7,4.8,7.8,3.7z M12.5,11.9c0.8,0.7,1.8,1.1,3.1,1.1s2.3-0.4,3.1-1.1c0.8-0.7,1.1-1.6,1.1-2.7c0-1.1-0.4-2-1.1-2.7
		s-1.8-1-3.1-1s-2.4,0.3-3.1,1c-0.7,0.7-1.1,1.6-1.1,2.7C11.3,10.3,11.7,11.2,12.5,11.9z"/>
</g>
</svg>
