<?xml version="1.0" encoding="utf-8"?>
<!-- Generator: Adobe Illustrator 19.2.0, SVG Export Plug-In . SVG Version: 6.00 Build 0)  -->
<svg version="1.1" id="Layer_1" xmlns="http://www.w3.org/2000/svg" xmlns:xlink="http://www.w3.org/1999/xlink" x="0px" y="0px"
	 viewBox="0 0 121.6 85.5" style="enable-background:new 0 0 121.6 85.5;" xml:space="preserve">
<style type="text/css">
	.st0{fill:#E6E7E8;}
	.st1{fill-rule:evenodd;clip-rule:evenodd;fill:#E6E7E8;}
</style>
<g>
	<g>
		<path class="st0" d="M3.2,76v4.6H0V67.5h5.1c1.6,0,2.7,0.4,3.5,1.2c0.8,0.8,1.2,1.8,1.2,3.1c0,0.8-0.2,1.5-0.5,2.2
			c-0.4,0.6-0.9,1.1-1.6,1.5C7,75.8,6.1,76,5.1,76H3.2z M6.7,71.8c0-1.1-0.6-1.7-1.9-1.7H3.2v3.4h1.6C6,73.5,6.7,72.9,6.7,71.8z"/>
		<path class="st0" d="M20.2,76h-7.2c0,0.8,0.2,1.3,0.6,1.7s0.8,0.5,1.4,0.5c0.5,0,0.9-0.1,1.2-0.4c0.3-0.2,0.5-0.5,0.6-0.9h3.3
			c-0.1,0.7-0.4,1.4-0.9,1.9c-0.5,0.6-1,1-1.7,1.3c-0.7,0.3-1.5,0.5-2.3,0.5c-1,0-1.9-0.2-2.7-0.6c-0.8-0.4-1.4-1-1.8-1.8
			c-0.4-0.8-0.7-1.7-0.7-2.8c0-1.1,0.2-2,0.7-2.8s1-1.4,1.8-1.8c0.8-0.4,1.7-0.6,2.7-0.6c1,0,1.9,0.2,2.7,0.6c0.8,0.4,1.4,1,1.8,1.8
			c0.4,0.8,0.6,1.6,0.6,2.6C20.3,75.4,20.3,75.7,20.2,76z M16.6,73.1c-0.4-0.3-0.8-0.5-1.4-0.5c-0.6,0-1.1,0.2-1.4,0.5
			s-0.6,0.8-0.6,1.5h4C17.1,74,16.9,73.5,16.6,73.1z"/>
		<path class="st0" d="M25.7,70.7c0.6-0.4,1.3-0.6,2-0.6v3.4h-0.9c-0.8,0-1.5,0.2-1.9,0.5s-0.7,1-0.7,1.8v4.7H21V70.3h3.2v1.9
			C24.6,71.6,25.1,71.1,25.7,70.7z"/>
		<path class="st0" d="M33.2,68.9c-0.5,0-0.9,0.1-1.1,0.3c-0.2,0.2-0.4,0.6-0.4,1.1h1.9v2.7h-1.9v7.6h-3.2v-7.6h-1.2v-2.7h1.2v-0.1
			c0-1.3,0.4-2.3,1.1-3c0.7-0.7,1.8-1,3.2-1c0.3,0,0.5,0,0.7,0v2.7L33.2,68.9z"/>
		<path class="st0" d="M43.7,76h-7.2c0,0.8,0.2,1.3,0.6,1.7s0.8,0.5,1.4,0.5c0.5,0,0.9-0.1,1.2-0.4c0.3-0.2,0.5-0.5,0.6-0.9h3.3
			c-0.1,0.7-0.4,1.4-0.9,1.9c-0.5,0.6-1,1-1.7,1.3c-0.7,0.3-1.5,0.5-2.3,0.5c-1,0-1.9-0.2-2.7-0.6c-0.8-0.4-1.4-1-1.8-1.8
			c-0.4-0.8-0.7-1.7-0.7-2.8c0-1.1,0.2-2,0.7-2.8s1-1.4,1.8-1.8c0.8-0.4,1.7-0.6,2.7-0.6c1,0,1.9,0.2,2.7,0.6c0.8,0.4,1.4,1,1.8,1.8
			c0.4,0.8,0.6,1.6,0.6,2.6C43.8,75.4,43.8,75.7,43.7,76z M40.1,73.1c-0.4-0.3-0.8-0.5-1.4-0.5c-0.6,0-1.1,0.2-1.4,0.5
			s-0.6,0.8-0.6,1.5h4C40.6,74,40.4,73.5,40.1,73.1z"/>
		<path class="st0" d="M52.5,71.2c0.9,0.7,1.5,1.7,1.7,3h-3.3c-0.1-0.4-0.3-0.8-0.6-1s-0.7-0.4-1.2-0.4c-0.6,0-1,0.2-1.4,0.7
			s-0.5,1.1-0.5,1.9c0,0.8,0.2,1.5,0.5,1.9c0.4,0.4,0.8,0.7,1.4,0.7c0.5,0,0.9-0.1,1.2-0.4c0.3-0.2,0.5-0.6,0.6-1h3.3
			c-0.2,1.3-0.8,2.3-1.7,3c-0.9,0.7-2,1.1-3.3,1.1c-1,0-1.9-0.2-2.7-0.6c-0.8-0.4-1.4-1-1.8-1.8c-0.4-0.8-0.7-1.7-0.7-2.8
			c0-1.1,0.2-2,0.7-2.8s1-1.4,1.8-1.8c0.8-0.4,1.7-0.6,2.7-0.6C50.5,70.1,51.6,70.5,52.5,71.2z"/>
		<path class="st0" d="M60.8,77.9v2.7h-1.4c-1.2,0-2.1-0.3-2.8-0.9c-0.7-0.6-1-1.6-1-3v-3.8h-1.4v-2.7h1.4v-2.5h3.2v2.5h2.1v2.7
			h-2.1v3.8c0,0.4,0.1,0.7,0.2,0.9s0.4,0.2,0.8,0.2H60.8z"/>
		<path class="st0" d="M71.3,76h-7.2c0,0.8,0.2,1.3,0.6,1.7c0.4,0.3,0.8,0.5,1.4,0.5c0.5,0,0.9-0.1,1.2-0.4c0.3-0.2,0.5-0.5,0.6-0.9
			h3.3c-0.1,0.7-0.4,1.4-0.9,1.9c-0.5,0.6-1,1-1.7,1.3s-1.5,0.5-2.3,0.5c-1,0-1.9-0.2-2.7-0.6c-0.8-0.4-1.4-1-1.8-1.8
			s-0.7-1.7-0.7-2.8c0-1.1,0.2-2,0.7-2.8c0.4-0.8,1.1-1.4,1.8-1.8s1.7-0.6,2.7-0.6c1,0,1.9,0.2,2.7,0.6c0.8,0.4,1.4,1,1.8,1.8
			c0.4,0.8,0.6,1.6,0.6,2.6C71.4,75.4,71.4,75.7,71.3,76z M67.7,73.1c-0.4-0.3-0.8-0.5-1.4-0.5c-0.6,0-1.1,0.2-1.4,0.5
			s-0.6,0.8-0.6,1.5h4C68.2,74,68.1,73.5,67.7,73.1z"/>
		<path class="st0" d="M78.1,70.7c0.6,0.4,1,0.8,1.2,1.5v-5.2h3.2v13.7h-3.2v-1.9c-0.3,0.6-0.7,1.1-1.2,1.5c-0.6,0.4-1.2,0.5-2,0.5
			c-0.8,0-1.6-0.2-2.3-0.6c-0.7-0.4-1.2-1-1.6-1.8c-0.4-0.8-0.6-1.7-0.6-2.8c0-1.1,0.2-2,0.6-2.8c0.4-0.8,0.9-1.4,1.6-1.8
			c0.7-0.4,1.4-0.6,2.3-0.6C76.9,70.1,77.5,70.3,78.1,70.7z M75.4,73.6c-0.4,0.4-0.6,1.1-0.6,1.8c0,0.8,0.2,1.4,0.6,1.8
			c0.4,0.4,1,0.7,1.6,0.7c0.7,0,1.2-0.2,1.6-0.7c0.4-0.5,0.6-1.1,0.6-1.8c0-0.8-0.2-1.4-0.6-1.8c-0.4-0.5-1-0.7-1.6-0.7
			C76.4,72.9,75.9,73.1,75.4,73.6z"/>
		<path class="st0" d="M94.6,78.2h-4.9l-0.8,2.4h-3.3l4.8-13H94l4.8,13h-3.4L94.6,78.2z M93.8,75.8L92.2,71l-1.6,4.8H93.8z"/>
		<path class="st0" d="M107.8,70.8c0.7,0.4,1.2,1,1.6,1.8c0.4,0.8,0.6,1.7,0.6,2.8c0,1.1-0.2,2-0.6,2.8c-0.4,0.8-0.9,1.4-1.6,1.8
			c-0.7,0.4-1.4,0.6-2.3,0.6c-0.8,0-1.5-0.2-2-0.5c-0.6-0.4-1-0.8-1.2-1.5v6.8h-3.2V70.3h3.2v1.9c0.3-0.6,0.7-1.1,1.2-1.5
			s1.2-0.5,2-0.5C106.4,70.1,107.1,70.3,107.8,70.8z M102.9,73.6c-0.4,0.4-0.6,1.1-0.6,1.8c0,0.8,0.2,1.4,0.6,1.8
			c0.4,0.5,1,0.7,1.6,0.7c0.7,0,1.2-0.2,1.6-0.7c0.4-0.4,0.6-1.1,0.6-1.8c0-0.8-0.2-1.4-0.6-1.8c-0.4-0.4-1-0.7-1.6-0.7
			C103.8,72.9,103.3,73.1,102.9,73.6z"/>
		<path class="st0" d="M119.4,70.8c0.7,0.4,1.2,1,1.6,1.8c0.4,0.8,0.6,1.7,0.6,2.8c0,1.1-0.2,2-0.6,2.8c-0.4,0.8-0.9,1.4-1.6,1.8
			c-0.7,0.4-1.4,0.6-2.3,0.6c-0.8,0-1.5-0.2-2-0.5c-0.6-0.4-1-0.8-1.2-1.5v6.8h-3.2V70.3h3.2v1.9c0.3-0.6,0.7-1.1,1.2-1.5
			s1.2-0.5,2-0.5C118,70.1,118.7,70.3,119.4,70.8z M114.5,73.6c-0.4,0.4-0.6,1.1-0.6,1.8c0,0.8,0.2,1.4,0.6,1.8
			c0.4,0.5,1,0.7,1.6,0.7c0.7,0,1.2-0.2,1.6-0.7c0.4-0.4,0.6-1.1,0.6-1.8c0-0.8-0.2-1.4-0.6-1.8c-0.4-0.4-1-0.7-1.6-0.7
			C115.4,72.9,114.9,73.1,114.5,73.6z"/>
	</g>
</g>
<path id="XMLID_281_" class="st1" d="M76,8.4L62.5,0.6c-1.4-0.8-3.6-0.8-4.9,0L44.1,8.4c-1.4,0.8-2.5,2.7-2.5,4.3v15.6
	c0,1.6,1.1,3.5,2.5,4.3l1.4,0.8c-0.1-1.5-0.1-3.4-0.1-6.1c0-0.3,0-0.6,0-1c0,0,0,0,0,0v-0.7c0-0.3,0-0.6,0-0.9v-9.8
	c0-0.6,0.1-1.2,0.4-1.8l0.1,0.1c0,0,0,0,0,0l0.1,0l3.3,1.9c-0.2,0.4-0.2,0.8-0.2,1.2v4.3v4.3v1.8v1.2v1V31v4.2l8.7,5
	c1.4,0.8,3.6,0.8,4.9,0L76,32.5c1.4-0.8,2.5-2.7,2.5-4.3V12.6C78.5,11.1,77.4,9.2,76,8.4z M49.8,13.8l-3.4-2
	c0.4-0.5,0.8-0.9,1.3-1.2l9.9-5.7c1.3-0.8,3.5-0.8,4.8,0l9.9,5.7c0.5,0.3,0.9,0.7,1.3,1.2l-3.4,2c-0.3-0.3-0.6-0.6-0.9-0.8l-7.4-4.3
	c-1-0.6-2.7-0.6-3.7,0l-7.4,4.3C50.4,13.1,50.1,13.4,49.8,13.8z M59.4,36.6c-0.6-0.1-1.2-0.3-1.7-0.5l-5.1-2.9V29l5.6,3.3
	c0.3,0.2,0.7,0.3,1.2,0.4V36.6z M59.7,28.6c-0.8-0.1-1.7-0.7-3.4-1.7c-3.9-2.2-3.7-2-3.7-6.5c0-2,0-3,0.3-3.8l6.9,4V28.6z
	 M59.7,19.8l-6.5-3.7c0.5-0.6,1.4-1.1,3.1-2.1c3.9-2.2,3.6-2.2,7.5,0c1.7,1,2.6,1.5,3.1,2.1l-6.9,4L59.7,19.8z M60.4,21.1v-0.4
	l6.9-4c0.3,0.8,0.3,1.8,0.3,3.8c0,4.5,0.1,4.2-3.7,6.5c-1.7,1-2.6,1.5-3.4,1.7V21.1z M74.8,26.2c0,1.5-1.1,3.4-2.4,4.2l-9.9,5.7
	c-0.5,0.3-1.1,0.5-1.7,0.5v-3.9c0.4-0.1,0.8-0.2,1.2-0.4l7.4-4.3c1-0.6,1.9-2,1.9-3.2v-8.6c0-0.4-0.1-0.8-0.2-1.2l3.4-2
	c0.3,0.6,0.4,1.2,0.4,1.8V26.2z"/>
</svg>
