<svg version="1.1" xmlns="http://www.w3.org/2000/svg" xmlns:xlink="http://www.w3.org/1999/xlink" x="0px" y="0px"
	 viewBox="0 0 36.8 40.9" style="enable-background:new 0 0 36.8 40.9;" xml:space="preserve">
<style type="text/css">
	.st0{fill-rule:evenodd;clip-rule:evenodd;fill:#2d3142;}
</style>
	<path class="st0" d="M34.4,8.4L20.9,0.6c-1.4-0.8-3.6-0.8-4.9,0L2.5,8.4C1.1,9.2,0,11.1,0,12.6v15.6
		c0,1.6,1.1,3.5,2.5,4.3l1.4,0.8c-0.1-1.5-0.1-3.4-0.1-6.1c0-0.3,0-0.6,0-1c0,0,0,0,0,0v-0.7c0-0.3,0-0.6,0-0.9v-9.8
		c0-0.6,0.1-1.2,0.4-1.8L4.2,13c0,0,0,0,0,0l0.1,0L7.5,15c-0.2,0.4-0.2,0.8-0.2,1.2v4.3v4.3v1.8v1.2v1V31v4.2l8.7,5
		c1.4,0.8,3.6,0.8,4.9,0l13.5-7.8c1.4-0.8,2.5-2.7,2.5-4.3V12.6C36.8,11.1,35.7,9.2,34.4,8.4z M8.2,13.8l-3.4-2
		c0.4-0.5,0.8-0.9,1.3-1.2L16,4.8c1.3-0.8,3.5-0.8,4.8,0l9.9,5.7c0.5,0.3,0.9,0.7,1.3,1.2l-3.4,2c-0.3-0.3-0.6-0.6-0.9-0.8l-7.4-4.3
		c-1-0.6-2.7-0.6-3.7,0l-7.4,4.3C8.8,13.1,8.5,13.4,8.2,13.8z M17.7,36.6c-0.6-0.1-1.2-0.3-1.7-0.5l-5.1-2.9V29l5.6,3.3
		c0.3,0.2,0.7,0.3,1.2,0.4V36.6z M18,28.6c-0.8-0.1-1.7-0.7-3.4-1.7c-3.9-2.2-3.7-2-3.7-6.5c0-2,0-3,0.3-3.8l6.9,4V28.6z M18,19.8
		l-6.5-3.7c0.5-0.6,1.4-1.1,3.1-2.1c3.9-2.2,3.6-2.2,7.5,0c1.7,1,2.6,1.5,3.1,2.1l-6.9,4L18,19.8z M18.8,21.1v-0.4l6.9-4
		c0.3,0.8,0.3,1.8,0.3,3.8c0,4.5,0.1,4.2-3.7,6.5c-1.7,1-2.6,1.5-3.4,1.7V21.1z M33.2,26.2c0,1.5-1.1,3.4-2.4,4.2l-9.9,5.7
		c-0.5,0.3-1.1,0.5-1.7,0.5v-3.9c0.4-0.1,0.8-0.2,1.2-0.4l7.4-4.3c1-0.6,1.9-2,1.9-3.2v-8.6c0-0.4-0.1-0.8-0.2-1.2l3.4-2
		c0.3,0.6,0.4,1.2,0.4,1.8V26.2z"/>
</svg>
