<svg xmlns="http://www.w3.org/2000/svg" viewBox="0 0 168.77 107.57"><defs><style>.cls-1,.cls-3{fill:#fff;}.cls-2{fill:#d24a43;}.cls-3{fill-rule:evenodd;}</style></defs><title>Asset 2</title><g id="Layer_2" data-name="Layer 2"><g id="Layer_1-2" data-name="Layer 1"><polygon class="cls-1" points="37.66 83.88 25.63 83.88 0 20.23 12.02 20.23 31.68 67.75 57.17 5.18 69.19 5.18 37.66 83.88"/><rect class="cls-2" x="64.73" y="35.42" width="10.22" height="48.46"/><path class="cls-2" d="M121.1,69.41a13.79,13.79,0,0,1-5,11.09c-3.38,2.74-7.63,4.1-12.89,4.1a36.11,36.11,0,0,1-11-1.87,33.46,33.46,0,0,1-10-5.4l4.9-7.92c5.62,4.25,11.09,6.34,16.42,6.34A8.53,8.53,0,0,0,109,74.16a5,5,0,0,0,2-4c0-2.45-3.24-4.61-9.72-6.55a2.69,2.69,0,0,0-1.08-.36C90.14,60.48,85.1,55.87,85.1,49.61a13,13,0,0,1,5.26-10.87c3.46-2.66,8-4,13.61-4a28.89,28.89,0,0,1,15.91,4.9L116,47.23a22.43,22.43,0,0,0-12.82-4,12.25,12.25,0,0,0-6,1.3,4.39,4.39,0,0,0-2.23,4,3.6,3.6,0,0,0,2.38,3.46A26.41,26.41,0,0,0,102,53.57,52,52,0,0,1,107.14,55a40.7,40.7,0,0,1,4.46,1.58,34.37,34.37,0,0,1,4.61,2.59C119.45,61.34,121.1,64.73,121.1,69.41Z"/><path class="cls-2" d="M168.77,83.88h-9.29V77.4a19.56,19.56,0,0,1-12.24,6.91V76a14,14,0,0,0,7.63-2.74,8.76,8.76,0,0,0,3.67-7.42V61.7h-11.3V54.58h11.38V52.85c0-6.41-3.6-9.65-10.73-9.65h-.65V34.78a20.23,20.23,0,0,1,2.09-.07c5.69,0,10.37,1.44,14,4.32s5.47,7.42,5.47,13.68Zm-21.53.43a23.29,23.29,0,0,1-4,.29,18.72,18.72,0,0,1-12.53-4.25,14.42,14.42,0,0,1-5-11.45c0-4.82,1.8-8.35,5.33-10.73s8.28-3.6,14.26-3.6h1.87V61.7H147c-7.34,0-11,2.3-11,7a6.22,6.22,0,0,0,2.74,5.4A13.58,13.58,0,0,0,146.38,76h.86v8.35Zm0-41.11c-4.32.14-8.78,1.8-13.39,4.9l-4.61-6.34a31.31,31.31,0,0,1,18-7Z"/><path class="cls-1" d="M130.61,107.57v-2.38a4.82,4.82,0,0,0,3.82-1.66,5.32,5.32,0,0,0,1.58-4,5.55,5.55,0,0,0-1.58-4A5,5,0,0,0,130.61,94V91.66a8,8,0,0,1,5.76,2.23,7.82,7.82,0,0,1,2.3,5.69,7.71,7.71,0,0,1-2.3,5.69,7.82,7.82,0,0,1-5.76,2.3ZM152,103.1,155.45,92h2.38l3.46,11.09L165.1,92h2.81l-5.33,15.41H160l-3.24-10.58h-.22l-3.24,10.58H150.7L145.37,92h2.74ZM130.61,91.66V94a5.05,5.05,0,0,0-3.89,1.58,5.55,5.55,0,0,0-1.58,4,5.32,5.32,0,0,0,1.58,4,4.87,4.87,0,0,0,3.89,1.66v2.38a7.87,7.87,0,0,1-5.83-2.3,7.71,7.71,0,0,1-2.3-5.69,7.82,7.82,0,0,1,2.3-5.69,8.1,8.1,0,0,1,5.83-2.23ZM72.43,103.9v-2.38h2.81l-2.81-6.34V92H73.8l6.84,15.41H77.83l-1.58-3.53ZM111.17,92h2.59v15.41H111l-8.71-11.23v11.23H99.65V92h2.59l8.93,11.52ZM30.38,103.9a3.69,3.69,0,0,0,2.88,1.22,3.54,3.54,0,0,0,2.81-1.22,4.9,4.9,0,0,0,1.08-3.38V92h2.59v8.64a6.71,6.71,0,0,1-1.8,5.11,6.35,6.35,0,0,1-4.68,1.8,6.4,6.4,0,0,1-4.75-1.8,6.71,6.71,0,0,1-1.8-5.11V92H29.3v8.5a4.9,4.9,0,0,0,1.08,3.38ZM72.43,92v3.17l-2.81,6.34h2.81v2.38H68.54L67,107.42H64.22L71.06,92Zm-19,2a3.33,3.33,0,0,0-1.8.43,1.71,1.71,0,0,0,0,2.88,13.78,13.78,0,0,0,3.1,1.08A7.67,7.67,0,0,1,58.25,100a4,4,0,0,1,1.22,3.1A4.09,4.09,0,0,1,58,106.34a6,6,0,0,1-4,1.22,9.41,9.41,0,0,1-6.41-2.45l1.66-1.94a7.5,7.5,0,0,0,4.82,2,3.35,3.35,0,0,0,2-.58,1.6,1.6,0,0,0,.72-1.44,1.67,1.67,0,0,0-.65-1.37,7.51,7.51,0,0,0-2.45-.94,16.25,16.25,0,0,1-2.52-.72,4.75,4.75,0,0,1-1.58-.86,3.76,3.76,0,0,1-1.37-3.17,3.85,3.85,0,0,1,1.51-3.31,6.37,6.37,0,0,1,3.89-1.15,10.46,10.46,0,0,1,3,.43A9.41,9.41,0,0,1,59,93.46l-1.44,2a4.22,4.22,0,0,0-1.87-1A6.24,6.24,0,0,0,53.42,94Z"/><polygon class="cls-2" points="168.77 5.18 168.77 15.34 69.26 15.34 73.37 5.18 168.77 5.18"/><polygon class="cls-2" points="168.77 20.66 168.77 30.89 63.07 30.89 67.18 20.66 168.77 20.66"/><polygon class="cls-3" points="43.99 0 45.79 5.54 51.62 5.54 46.87 9 48.74 14.54 43.99 11.09 39.24 14.54 41.04 9 36.29 5.54 42.19 5.54 43.99 0"/><polygon class="cls-3" points="34.34 22.75 36.14 28.37 42.05 28.37 37.3 31.82 39.1 37.37 34.34 33.91 29.66 37.37 31.46 31.82 26.71 28.37 32.54 28.37 34.34 22.75"/><polygon class="cls-3" points="21.96 5.33 23.83 10.87 29.66 10.87 24.91 14.33 26.71 19.94 21.96 16.42 17.28 19.94 19.08 14.33 14.33 10.87 20.16 10.87 21.96 5.33"/></g></g></svg>